<svg xmlns="http://www.w3.org/2000/svg" xmlns:xlink="http://www.w3.org/1999/xlink" viewBox="0,0,256,256" width="48px" height="48px" fill-rule="none"><g fill="none" fill-rule="none" stroke="none" stroke-width="1" stroke-linecap="butt" stroke-linejoin="miter" stroke-miterlimit="10" stroke-dasharray="" stroke-dashoffset="0" font-family="none" font-weight="none" font-size="none" text-anchor="none" style="mix-blend-mode: normal"><g transform="scale(5.33333,5.33333)"><circle cx="24" cy="24" r="19.375" fill="#94d82d" fill-rule="nonzero"></circle><path d="M24,4c-11.041,0 -20,8.959 -20,20c0,11.041 8.959,20 20,20c11.02,0 20,-8.959 20,-20c0,-11.041 -8.98,-20 -20,-20zM37.21,13.219c2.386,2.907 3.818,6.616 3.861,10.629c-0.564,-0.108 -6.204,-1.258 -11.887,-0.542c-0.13,-0.282 -0.239,-0.586 -0.369,-0.889c-0.347,-0.824 -0.738,-1.67 -1.128,-2.473c6.291,-2.56 9.155,-6.248 9.523,-6.725zM24,6.95c4.338,0 8.308,1.627 11.323,4.295c-0.304,0.434 -2.885,3.883 -8.959,6.16c-2.798,-5.141 -5.9,-9.349 -6.377,-10c1.28,-0.303 2.625,-0.455 4.013,-0.455zM16.733,8.555c0.455,0.607 3.492,4.837 6.334,9.87c-7.983,2.126 -15.033,2.083 -15.792,2.083c1.107,-5.293 4.686,-9.697 9.458,-11.953zM6.907,24.022c0,-0.174 0,-0.347 0,-0.521c0.738,0.022 9.024,0.13 17.549,-2.43c0.499,0.954 0.954,1.931 1.388,2.907c-0.217,0.065 -0.456,0.13 -0.672,0.195c-8.807,2.842 -13.492,10.607 -13.883,11.258c-2.712,-3.014 -4.382,-7.028 -4.382,-11.409zM24,41.093c-3.948,0 -7.592,-1.345 -10.477,-3.601c0.304,-0.629 3.774,-7.31 13.406,-10.672c0.043,-0.022 0.065,-0.022 0.109,-0.043c2.408,6.226 3.384,11.453 3.644,12.95c-2.062,0.889 -4.318,1.366 -6.682,1.366zM33.523,38.165c-0.174,-1.041 -1.085,-6.03 -3.319,-12.169c5.358,-0.846 10.043,0.542 10.629,0.738c-0.737,4.75 -3.471,8.849 -7.31,11.431z" fill="#fff8fa" fill-rule="evenodd"></path></g></g></svg>